<svg width="40" height="41" viewBox="0 0 40 41" fill="none" xmlns="http://www.w3.org/2000/svg">
<rect y="0.456055" width="40" height="40" rx="20" fill="white"/>
<path d="M20 12.9561C15.8577 12.9561 12.5 16.3138 12.5 20.4561C12.5 24.1993 15.2427 27.3021 18.8285 27.8653V22.6236H16.9235V20.4561H18.8285V18.8038C18.8285 16.9243 19.9475 15.8863 21.6613 15.8863C22.4818 15.8863 23.3397 16.0326 23.3397 16.0326V17.8776H22.3947C21.4625 17.8776 21.1722 18.4558 21.1722 19.0491V20.4561H23.252L22.9198 22.6236H21.1722V27.8653C24.7572 27.3028 27.5 24.1986 27.5 20.4561C27.5 16.3138 24.1423 12.9561 20 12.9561Z" fill="#191919"/>
</svg>
