<svg width="40" height="41" viewBox="0 0 40 41" fill="none" xmlns="http://www.w3.org/2000/svg">
<rect y="0.456055" width="40" height="40" rx="20" fill="white"/>
<path d="M20 18.2061C19.4033 18.2061 18.831 18.4431 18.409 18.8651C17.9871 19.287 17.75 19.8593 17.75 20.4561C17.75 21.0528 17.9871 21.6251 18.409 22.047C18.831 22.469 19.4033 22.7061 20 22.7061C20.5967 22.7061 21.169 22.469 21.591 22.047C22.0129 21.6251 22.25 21.0528 22.25 20.4561C22.25 19.8593 22.0129 19.287 21.591 18.8651C21.169 18.4431 20.5967 18.2061 20 18.2061ZM20 16.7061C20.9946 16.7061 21.9484 17.1011 22.6517 17.8044C23.3549 18.5077 23.75 19.4615 23.75 20.4561C23.75 21.4506 23.3549 22.4044 22.6517 23.1077C21.9484 23.811 20.9946 24.2061 20 24.2061C19.0054 24.2061 18.0516 23.811 17.3483 23.1077C16.6451 22.4044 16.25 21.4506 16.25 20.4561C16.25 19.4615 16.6451 18.5077 17.3483 17.8044C18.0516 17.1011 19.0054 16.7061 20 16.7061ZM24.875 16.5186C24.875 16.7672 24.7762 17.0057 24.6004 17.1815C24.4246 17.3573 24.1861 17.4561 23.9375 17.4561C23.6889 17.4561 23.4504 17.3573 23.2746 17.1815C23.0988 17.0057 23 16.7672 23 16.5186C23 16.2699 23.0988 16.0315 23.2746 15.8556C23.4504 15.6798 23.6889 15.5811 23.9375 15.5811C24.1861 15.5811 24.4246 15.6798 24.6004 15.8556C24.7762 16.0315 24.875 16.2699 24.875 16.5186ZM20 14.4561C18.1445 14.4561 17.8415 14.4613 16.9783 14.4996C16.3903 14.5273 15.9957 14.6061 15.6297 14.7486C15.3235 14.861 15.0466 15.0413 14.8197 15.2758C14.585 15.5026 14.4045 15.7795 14.2917 16.0858C14.1492 16.4533 14.0705 16.8471 14.0435 17.4343C14.0045 18.2623 14 18.5518 14 20.4561C14 22.3116 14.0053 22.6146 14.0435 23.4778C14.0713 24.0651 14.15 24.4603 14.2917 24.8256C14.4192 25.1518 14.5693 25.3866 14.8183 25.6356C15.071 25.8876 15.3058 26.0383 15.6283 26.1628C15.9988 26.3061 16.3933 26.3856 16.9783 26.4126C17.8062 26.4516 18.0957 26.4561 20 26.4561C21.8555 26.4561 22.1585 26.4508 23.0217 26.4126C23.6082 26.3848 24.0035 26.3061 24.3695 26.1643C24.6753 26.0513 24.9521 25.8714 25.1795 25.6378C25.4323 25.3851 25.583 25.1503 25.7075 24.8278C25.85 24.4581 25.9295 24.0628 25.9565 23.4778C25.9955 22.6498 26 22.3603 26 20.4561C26 18.6006 25.9947 18.2976 25.9565 17.4343C25.9287 16.8478 25.85 16.4518 25.7075 16.0858C25.5945 15.7798 25.4143 15.503 25.1803 15.2758C24.9536 15.0409 24.6766 14.8604 24.3702 14.7478C24.0027 14.6053 23.6082 14.5266 23.0217 14.4996C22.1937 14.4606 21.9043 14.4561 20 14.4561ZM20 12.9561C22.0378 12.9561 22.292 12.9636 23.0915 13.0011C23.8902 13.0386 24.434 13.1638 24.9125 13.3498C25.4075 13.5403 25.8245 13.7983 26.2415 14.2146C26.6229 14.5895 26.918 15.043 27.1063 15.5436C27.2915 16.0213 27.4175 16.5658 27.455 17.3646C27.4902 18.1641 27.5 18.4183 27.5 20.4561C27.5 22.4938 27.4925 22.7481 27.455 23.5476C27.4175 24.3463 27.2915 24.8901 27.1063 25.3686C26.9185 25.8694 26.6233 26.323 26.2415 26.6976C25.8665 27.0788 25.413 27.3739 24.9125 27.5623C24.4347 27.7476 23.8902 27.8736 23.0915 27.9111C22.292 27.9463 22.0378 27.9561 20 27.9561C17.9622 27.9561 17.708 27.9486 16.9085 27.9111C16.1097 27.8736 15.566 27.7476 15.0875 27.5623C14.5867 27.3744 14.1331 27.0793 13.7585 26.6976C13.3771 26.3227 13.0819 25.8692 12.8938 25.3686C12.7078 24.8908 12.5825 24.3463 12.545 23.5476C12.5097 22.7481 12.5 22.4938 12.5 20.4561C12.5 18.4183 12.5075 18.1641 12.545 17.3646C12.5825 16.5651 12.7078 16.0221 12.8938 15.5436C13.0814 15.0427 13.3766 14.589 13.7585 14.2146C14.1333 13.833 14.5868 13.5379 15.0875 13.3498C15.566 13.1638 16.109 13.0386 16.9085 13.0011C17.708 12.9658 17.9622 12.9561 20 12.9561Z" fill="#191919"/>
</svg>
