<svg width="40" height="41" viewBox="0 0 40 41" fill="none" xmlns="http://www.w3.org/2000/svg">
<rect y="0.456055" width="40" height="40" rx="20" fill="white"/>
<path d="M27.6215 15.6982C27.0489 15.9515 26.4417 16.1178 25.82 16.1917C26.4753 15.7998 26.9658 15.183 27.2 14.4562C26.585 14.8222 25.9107 15.0787 25.208 15.2175C24.7359 14.7124 24.1102 14.3775 23.4282 14.2647C22.7461 14.1519 22.0459 14.2676 21.4364 14.5938C20.8269 14.9201 20.3423 15.4385 20.0578 16.0686C19.7734 16.6987 19.705 17.4051 19.8635 18.078C18.6163 18.0155 17.3962 17.6914 16.2824 17.1267C15.1687 16.5621 14.1861 15.7695 13.3985 14.8005C13.1197 15.2793 12.9732 15.8237 12.974 16.3777C12.974 17.4652 13.5275 18.426 14.369 18.9885C13.871 18.9728 13.384 18.8383 12.9485 18.5962V18.6352C12.9486 19.3595 13.1993 20.0615 13.6579 20.622C14.1165 21.1826 14.7548 21.5674 15.4647 21.711C15.0024 21.8363 14.5177 21.8547 14.0472 21.765C14.2474 22.3884 14.6375 22.9336 15.1629 23.3243C15.6884 23.715 16.3228 23.9316 16.9775 23.9437C16.3268 24.4547 15.5819 24.8325 14.7851 25.0554C13.9884 25.2783 13.1556 25.3419 12.3342 25.2427C13.768 26.1648 15.4371 26.6543 17.1417 26.6527C22.9115 26.6527 26.0667 21.873 26.0667 17.7277C26.0667 17.5927 26.063 17.4562 26.057 17.3227C26.6711 16.8789 27.2012 16.329 27.6222 15.699L27.6215 15.6982Z" fill="#191919"/>
</svg>
   